<svg width="32" height="23" viewBox="0 0 32 23" fill="none" xmlns="http://www.w3.org/2000/svg">
<path d="M15.4697 18.4688L28.4697 5.46875M13.4697 16.4688L26.4697 3.46875" stroke="#E4623E" stroke-width="2"/>
<mask id="path-2-inside-1_354_321" fill="white">
<path fill-rule="evenodd" clip-rule="evenodd" d="M30.0796 4.89791L27.0311 1.84946C27.1087 1.73111 27.1993 1.61903 27.3031 1.51521C28.1404 0.67794 29.5155 0.695542 30.3745 1.55453C31.2299 2.40997 31.2509 3.77728 30.4241 4.61549L30.4034 4.63617C30.3025 4.73569 30.194 4.82293 30.0796 4.89791Z"/>
</mask>
<path fill-rule="evenodd" clip-rule="evenodd" d="M30.0796 4.89791L27.0311 1.84946C27.1087 1.73111 27.1993 1.61903 27.3031 1.51521C28.1404 0.67794 29.5155 0.695542 30.3745 1.55453C31.2299 2.40997 31.2509 3.77728 30.4241 4.61549L30.4034 4.63617C30.3025 4.73569 30.194 4.82293 30.0796 4.89791Z" fill="black"/>
<path d="M30.0796 4.89791L28.6653 6.31213L29.8154 7.46221L31.1758 6.57071L30.0796 4.89791ZM27.0311 1.84946L25.3583 0.75322L24.4668 2.11359L25.6169 3.26367L27.0311 1.84946ZM30.4241 4.61549L31.8384 6.02974L31.848 6.01999L30.4241 4.61549ZM30.4034 4.63617L31.808 6.06007L31.8176 6.05038L30.4034 4.63617ZM31.4938 3.4837L28.4453 0.435247L25.6169 3.26367L28.6653 6.31213L31.4938 3.4837ZM28.7039 2.9457C28.7069 2.94115 28.711 2.93574 28.7174 2.92942L25.8889 0.100996C25.6876 0.302316 25.5104 0.521074 25.3583 0.75322L28.7039 2.9457ZM28.7174 2.92942C28.7338 2.91299 28.7583 2.89801 28.8051 2.89861C28.8531 2.89922 28.9092 2.91765 28.9603 2.96874L31.7887 0.140313C30.183 -1.46537 27.5412 -1.55124 25.8889 0.100996L28.7174 2.92942ZM28.9603 2.96874C29.0112 3.01964 29.0296 3.07547 29.0304 3.12335C29.0311 3.17021 29.0162 3.19485 29.0002 3.211L31.848 6.01999C33.4795 4.36592 33.3879 1.73955 31.7887 0.140313L28.9603 2.96874ZM29.0099 3.20128L28.9892 3.22196L31.8176 6.05038L31.8383 6.02971L29.0099 3.20128ZM28.9989 3.2123C28.9929 3.21823 28.9877 3.22222 28.9833 3.22512L31.1758 6.57071C31.4002 6.42365 31.6121 6.25315 31.8079 6.06004L28.9989 3.2123Z" fill="#E4623E" mask="url(#path-2-inside-1_354_321)"/>
<path d="M12.2928 19.7073L12.7411 18.0343L13.9658 19.259L12.2928 19.7073Z" fill="black" stroke="#E4623E" stroke-width="2"/>
<path d="M8.9325 20.6789C2.40224 19.0193 10.3125 14.5435 6.09348 14.2238C2.11578 13.9225 0.450681 9.63626 1.45348 7.38266C2.45628 5.12902 4.30623 3.77161 8.34353 0.999104" stroke="#E4623E" stroke-width="2" stroke-linejoin="round"/>
</svg>
